# xmcd CD database file
#
# Track frame offsets:
#	150
#	13176
#	30610
#	39998
#	54964
#	68269
#	85166
#	95391
#	107699
#	120637
#	132685
#	145335
#	160296
#	174687
#	186528
#
# Disc length: 2720 seconds
#
# Revision: 0
# Processed by: cddbd v1.5.2PL0 Copyright (c) Steve Scherf et al.
# Submitted via: CDex 1.70beta2
#
DISCID=ca0a9e0f
DTITLE=Yannick Monot and Helt Oncale - Let's go to New Orleans
DYEAR=2012
DGENRE=Country
TTITLE0=Let's go to New Orleans
TTITLE1=Alligator Bait
TTITLE2=Grand Galop Two Step
TTITLE3=Jesuis pas né hier au soir
TTITLE4=Back Home to Memphis
TTITLE5=Louisiana Man
TTITLE6=La petite Coco
TTITLE7=Amédée Two Step
TTITLE8=Ain't Nobody Gonna Tell Me
TTITLE9=Suburban Dream
TTITLE10=Sometimes Up, Sometimes Down
TTITLE11=Les temps de coursailler
TTITLE12=Walking to New Orleans
TTITLE13=Pecan Picking
TTITLE14=Bosco Stomp
EXTD=YEAR: 2012
EXTT0=
EXTT1=
EXTT2=
EXTT3=
EXTT4=
EXTT5=
EXTT6=
EXTT7=
EXTT8=
EXTT9=
EXTT10=
EXTT11=
EXTT12=
EXTT13=
EXTT14=
PLAYORDER=
